<?xml version="1.0" encoding="UTF-8"?>
<svg version="1.1" xmlns="http://www.w3.org/2000/svg" width="677" height="369">
<path d="M0 0 C1.80791016 0.67869141 1.80791016 0.67869141 3.65234375 1.37109375 C5.06001108 1.91376366 6.46755315 2.45675852 7.875 3 C9.60514104 3.65841385 11.33562957 4.31591511 13.06640625 4.97265625 C16.71683537 6.35942785 20.36492907 7.75212623 24.01171875 9.1484375 C28.43471317 10.83812076 32.87619789 12.46932945 37.33203125 14.0703125 C41.5406355 15.60894201 45.71544975 17.23480178 49.89453125 18.8515625 C52.17441133 19.7300484 54.45776334 20.59220666 56.75 21.4375 C59.82828166 22.5814126 62.87020982 23.80604771 65.91259766 25.04199219 C72.86978365 27.86348782 79.87360958 30.47388314 86.97631836 32.9074707 C91.36993048 34.4228932 95.62252534 36.12293111 99.875 38 C99.63256836 39.88867187 99.63256836 39.88867187 98.875 42 C97.08422852 43.03320312 97.08422852 43.03320312 94.75390625 43.78125 C93.90602539 44.06363525 93.05814453 44.34602051 92.18457031 44.63696289 C91.27803711 44.92176514 90.37150391 45.20656738 89.4375 45.5 C87.58934989 46.11179138 85.74168603 46.72505376 83.89453125 47.33984375 C83.01361816 47.62843262 82.13270508 47.91702148 81.22509766 48.21435547 C78.65131889 49.07477725 76.13337594 50.02709093 73.625 51.0625 C67.47347594 53.59865466 61.22766829 55.88546213 54.99365234 58.20898438 C52.88655204 58.99568696 50.78091684 59.78618134 48.67578125 60.578125 C47.3046916 61.09376091 45.9335979 61.60938603 44.5625 62.125 C43.55280151 62.50483032 43.55280151 62.50483032 42.52270508 62.89233398 C38.83904738 64.27466904 35.145219 65.62131576 31.4375 66.9375 C25.93661239 68.92047457 20.55623295 71.17562555 15.15942383 73.42236328 C10.20837588 75.47525037 5.22879592 77.39619602 0.171875 79.17578125 C-2.17349165 79.96776024 -2.17349165 79.96776024 -4.484375 81.16796875 C-15.23868484 84.55653087 -31.00521762 74.86436341 -41.0546875 70.68359375 C-53.00869568 65.71982889 -65.2092673 61.39469942 -77.37866211 56.99462891 C-81.16834651 55.62213586 -84.95474311 54.24065062 -88.7409668 52.85864258 C-91.52028741 51.85763176 -94.31503587 50.91133972 -97.125 50 C-98.55199445 54.9190703 -98.72438058 59.92472547 -98.125 65 C-96.20833079 67.25065102 -96.20833079 67.25065102 -94.125 69 C-93.68516995 73.83813051 -93.92709265 78.60418529 -96.125 83 C-95.70673278 85.44525452 -95.23259125 87.83304218 -94.6875 90.25 C-93.64493818 94.88461978 -92.93961262 99.22442118 -93.125 104 C-96.48650452 105.12050151 -99.08786726 105.13296652 -102.625 105.125 C-103.7696875 105.12757813 -104.914375 105.13015625 -106.09375 105.1328125 C-109.125 105 -109.125 105 -112.125 104 C-110.50797872 84.76595745 -110.50797872 84.76595745 -108.125 80 C-108.785 80 -109.445 80 -110.125 80 C-111.31323797 76.43528609 -111.38774852 73.7441664 -111.125 70 C-110.63539795 69.36932617 -110.1457959 68.73865234 -109.64135742 68.08886719 C-107.80468964 65.55875455 -107.70769348 64.11234624 -107.61328125 61.015625 C-107.57783203 60.08105469 -107.54238281 59.14648438 -107.50585938 58.18359375 C-107.48330078 57.21550781 -107.46074219 56.24742187 -107.4375 55.25 C-107.40333984 54.26644531 -107.36917969 53.28289062 -107.33398438 52.26953125 C-107.25164727 49.84646801 -107.18245162 47.42376002 -107.125 45 C-107.90834717 44.85054932 -108.69169434 44.70109863 -109.4987793 44.54711914 C-112.98806667 43.82019779 -115.88047522 42.46321706 -119.125 41 C-119.125 40.01 -119.125 39.02 -119.125 38 C-108.91342928 33.83259671 -98.69367293 29.76156309 -88.27270508 26.14550781 C-80.83824073 23.56551105 -73.48082131 20.7951461 -66.125 18 C-65.35768555 17.70899414 -64.59037109 17.41798828 -63.79980469 17.11816406 C-55.26294014 13.87957033 -46.73329361 10.62268555 -38.21484375 7.3359375 C-36.46373291 6.66062988 -36.46373291 6.66062988 -34.67724609 5.97167969 C-32.39452915 5.09078794 -30.11228266 4.20867585 -27.83056641 3.32519531 C-26.26121338 2.71949707 -26.26121338 2.71949707 -24.66015625 2.1015625 C-23.735979 1.74400879 -22.81180176 1.38645508 -21.85961914 1.01806641 C-13.88841617 -1.94951831 -8.17113747 -3.11281427 0 0 Z " fill="#2B74B3" transform="translate(348.125,75)"/>
<path d="M0 0 C6.23985107 0.24959404 11.03802907 2.15110668 16.71875 4.70336914 C20.92819345 6.58266527 25.07754334 7.99189733 29.5078125 9.2265625 C35.44360101 11.06870376 41.13312495 13.72804848 46.80859375 16.24609375 C47.67613281 16.61863281 48.54367187 16.99117187 49.4375 17.375 C50.19933594 17.71273437 50.96117187 18.05046875 51.74609375 18.3984375 C56.70080752 19.72083944 61.39755506 17.2126211 66 15.4375 C66.68280029 15.17791504 67.36560059 14.91833008 68.0690918 14.65087891 C70.38086601 13.77106104 72.69043102 12.88558939 75 12 C76.77720465 11.32125026 78.55455321 10.64287723 80.33203125 9.96484375 C81.23574463 9.6201001 82.13945801 9.27535645 83.07055664 8.92016602 C86.61072438 7.57073515 90.15173325 6.22352815 93.69335938 4.87792969 C95.67720103 4.1228604 97.65910522 3.36270422 99.640625 2.6015625 C100.60484375 2.23804688 101.5690625 1.87453125 102.5625 1.5 C103.74005859 1.05140625 103.74005859 1.05140625 104.94140625 0.59375 C107 0 107 0 111 0 C111 5.28 111 10.56 111 16 C112.36125 16.2475 113.7225 16.495 115.125 16.75 C122.9665483 18.55392426 126.60311418 22.34402819 130.80078125 28.9765625 C133.10595415 32.86607248 133.32206133 36.17908818 133.5625 40.625 C133.60785889 41.379021 133.65321777 42.13304199 133.69995117 42.90991211 C133.94875822 47.4600006 133.9904045 51.95680326 133.86279297 56.51074219 C133.58847479 64.93353638 133.58847479 64.93353638 136.515625 72.65234375 C139.01849775 74.92468874 141.79405019 75.3219803 145.07421875 75.74609375 C147 76 147 76 148 77 C148.07313567 79.53049402 148.09247527 82.03304837 148.0625 84.5625 C148.05798828 85.27341797 148.05347656 85.98433594 148.04882812 86.71679688 C148.03700864 88.47790013 148.01907263 90.23896036 148 92 C145 93 145 93 142 93.375 C138.7391807 94.05433735 138.02981028 94.49132602 136 97 C133.62295951 103.18729657 133.81929186 109.73249977 134 116.25 C134.27202616 137.00431837 134.27202616 137.00431837 129 145 C128.46375 145.845625 127.9275 146.69125 127.375 147.5625 C121.70707792 153.37957792 114.01541074 154.91153278 106.12109375 155.05078125 C103.41292009 155.06115739 100.70777282 155.04406864 98 155 C97.80613508 152.35448944 97.61961733 149.70882217 97.4375 147.0625 C97.38142578 146.30775391 97.32535156 145.55300781 97.26757812 144.77539062 C97.13823843 142.85254042 97.06483088 140.92610452 97 139 C99.25793777 136.74206223 104.83924281 137.73970637 107.8984375 137.671875 C111.11262231 137.32075054 111.11262231 137.32075054 112.66625977 134.87890625 C114.24690499 131.4670504 114.39837318 129.01852131 114.44140625 125.265625 C114.46783203 123.96882813 114.49425781 122.67203125 114.52148438 121.3359375 C114.53634516 119.97397079 114.55000914 118.61199051 114.5625 117.25 C114.83546211 94.34323999 114.83546211 94.34323999 120 89.0625 C120.515625 88.51722656 121.03125 87.97195312 121.5625 87.41015625 C122.036875 86.94480469 122.51125 86.47945313 123 86 C123.66 85.34 124.32 84.68 125 84 C124.071875 83.319375 123.14375 82.63875 122.1875 81.9375 C117.49745749 78.03281838 115.94156153 72.87841198 115 67 C114.91098499 64.69785796 114.86861563 62.39368755 114.859375 60.08984375 C114.84003906 58.77048828 114.82070313 57.45113281 114.80078125 56.09179688 C114.77174849 54.00906569 114.74999765 51.9274297 114.74951172 49.84448242 C114.74617694 47.82194004 114.70945126 45.79953979 114.671875 43.77734375 C114.6625293 42.57327881 114.65318359 41.36921387 114.64355469 40.12866211 C114.26184859 36.82831539 114.26184859 36.82831539 111.62890625 34.60961914 C104.63403124 30.32681723 95.0402997 32.94045201 87.4375 34.6875 C78.31394745 36.94296584 69.81756895 39.85475119 62.125 45.375 C59.40777747 47.25465573 58.35088887 47.97075926 55 48.25 C52.31119497 47.12966457 50.57154845 46.00867009 48.25 44.3125 C36.45957922 36.00515768 17.28261779 31.12123981 3 33 C-0.70146187 34.77972805 -0.70146187 34.77972805 -3 38 C-3.11938992 40.21795427 -3.17924925 42.43921704 -3.2109375 44.66015625 C-3.23904035 46.02540191 -3.26770497 47.3906361 -3.296875 48.75585938 C-3.33785625 50.89932508 -3.37475275 53.04258461 -3.40136719 55.1862793 C-3.65473525 73.98138432 -3.65473525 73.98138432 -8.82421875 80.19140625 C-9.43910156 80.64386719 -10.05398438 81.09632813 -10.6875 81.5625 C-11.62142578 82.27599609 -11.62142578 82.27599609 -12.57421875 83.00390625 C-13.04472656 83.33261719 -13.51523437 83.66132813 -14 84 C-13.4946875 84.48210937 -12.989375 84.96421875 -12.46875 85.4609375 C-11.8190625 86.09257812 -11.169375 86.72421875 -10.5 87.375 C-9.8503125 88.00148438 -9.200625 88.62796875 -8.53125 89.2734375 C-7 91 -7 91 -7 93 C-6.34 93 -5.68 93 -5 93 C-4.2187564 97.88228055 -3.84665033 102.58756177 -3.75390625 107.54296875 C-3.72100527 108.9602935 -3.68779307 110.37761106 -3.65429688 111.79492188 C-3.60674703 114.00020012 -3.56218281 116.20544167 -3.52319336 118.41088867 C-3.4834554 120.55935618 -3.43196796 122.70729472 -3.37890625 124.85546875 C-3.3538501 126.13059326 -3.32879395 127.40571777 -3.30297852 128.71948242 C-3.02216348 131.76002363 -2.70192295 133.5027648 -1 136 C1.54412792 137.27206396 3.66596092 137.29117607 6.5 137.5 C11.77777778 137.88888889 11.77777778 137.88888889 14 139 C14 144.28 14 149.56 14 155 C4.1334438 155.35237701 -6.24674891 155.52367645 -14.25 148.9375 C-15.890625 147.40234375 -15.890625 147.40234375 -17 146 C-17 145.34 -17 144.68 -17 144 C-17.66 144 -18.32 144 -19 144 C-22.58667805 135.54500428 -22.48703653 127.26837482 -22.5625 118.25 C-22.58639387 116.00783739 -22.61460467 113.76605022 -22.65428162 111.52410889 C-22.68948689 109.50092709 -22.70955983 107.47749855 -22.72875977 105.45410156 C-23.09081694 100.84349406 -23.90905444 98.09094556 -27.1875 94.8125 C-30.48690077 92.6862195 -33.19672497 91.89488824 -37 91 C-37 86.38 -37 81.76 -37 77 C-35.5975 76.773125 -34.195 76.54625 -32.75 76.3125 C-29.24611856 75.54120534 -28.15545729 75.15157085 -25.5 72.5625 C-22.97724709 68.25279711 -22.86772416 64.94799987 -22.82421875 60.0234375 C-22.80099981 58.6158708 -22.77688166 57.20831871 -22.75195312 55.80078125 C-22.71703433 53.59576938 -22.68759992 51.3912882 -22.67407227 49.18603516 C-22.59894992 38.93010123 -21.49810179 31.45292338 -15.875 22.6875 C-11.5174958 18.61418086 -6.03809187 16 0 16 C0 10.72 0 5.44 0 0 Z " fill="#1D5689" transform="translate(283,142)"/>
<path d="M0 0 C6.23985107 0.24959404 11.03802907 2.15110668 16.71875 4.70336914 C20.92819345 6.58266527 25.07754334 7.99189733 29.5078125 9.2265625 C35.41925001 11.06114655 41.10975066 13.68475101 46.73828125 16.24609375 C52.05164207 18.57623226 55.32851214 19.47951857 61 18 C60.34 19.32 59.68 20.64 59 22 C57.68 22 56.36 22 55 22 C54.97106068 25.62498334 54.95322208 29.24993713 54.9375 32.875 C54.92493164 34.42380859 54.92493164 34.42380859 54.91210938 36.00390625 C54.90727539 37.48310547 54.90727539 37.48310547 54.90234375 38.9921875 C54.89448853 40.35899658 54.89448853 40.35899658 54.88647461 41.75341797 C54.85114435 44.03687509 54.85114435 44.03687509 56 46 C54.2265625 46.66015625 54.2265625 46.66015625 52 47 C50.2734375 45.99609375 50.2734375 45.99609375 48.375 44.4375 C36.57074049 36.03944472 17.35383064 31.11187235 3 33 C-0.70146187 34.77972805 -0.70146187 34.77972805 -3 38 C-3.11938992 40.21795427 -3.17924925 42.43921704 -3.2109375 44.66015625 C-3.23904035 46.02540191 -3.26770497 47.3906361 -3.296875 48.75585938 C-3.33785625 50.89932508 -3.37475275 53.04258461 -3.40136719 55.1862793 C-3.65473525 73.98138432 -3.65473525 73.98138432 -8.82421875 80.19140625 C-9.43910156 80.64386719 -10.05398438 81.09632813 -10.6875 81.5625 C-11.62142578 82.27599609 -11.62142578 82.27599609 -12.57421875 83.00390625 C-13.04472656 83.33261719 -13.51523437 83.66132813 -14 84 C-13.4946875 84.48210937 -12.989375 84.96421875 -12.46875 85.4609375 C-11.8190625 86.09257812 -11.169375 86.72421875 -10.5 87.375 C-9.8503125 88.00148438 -9.200625 88.62796875 -8.53125 89.2734375 C-7 91 -7 91 -7 93 C-6.34 93 -5.68 93 -5 93 C-4.2187564 97.88228055 -3.84665033 102.58756177 -3.75390625 107.54296875 C-3.72100527 108.9602935 -3.68779307 110.37761106 -3.65429688 111.79492188 C-3.60674703 114.00020012 -3.56218281 116.20544167 -3.52319336 118.41088867 C-3.4834554 120.55935618 -3.43196796 122.70729472 -3.37890625 124.85546875 C-3.3538501 126.13059326 -3.32879395 127.40571777 -3.30297852 128.71948242 C-3.02216348 131.76002363 -2.70192295 133.5027648 -1 136 C1.54412792 137.27206396 3.66596092 137.29117607 6.5 137.5 C11.77777778 137.88888889 11.77777778 137.88888889 14 139 C14 144.28 14 149.56 14 155 C4.1334438 155.35237701 -6.24674891 155.52367645 -14.25 148.9375 C-15.890625 147.40234375 -15.890625 147.40234375 -17 146 C-17 145.34 -17 144.68 -17 144 C-17.66 144 -18.32 144 -19 144 C-22.58667805 135.54500428 -22.48703653 127.26837482 -22.5625 118.25 C-22.58639387 116.00783739 -22.61460467 113.76605022 -22.65428162 111.52410889 C-22.68948689 109.50092709 -22.70955983 107.47749855 -22.72875977 105.45410156 C-23.09081694 100.84349406 -23.90905444 98.09094556 -27.1875 94.8125 C-30.48690077 92.6862195 -33.19672497 91.89488824 -37 91 C-37 86.38 -37 81.76 -37 77 C-35.5975 76.773125 -34.195 76.54625 -32.75 76.3125 C-29.24611856 75.54120534 -28.15545729 75.15157085 -25.5 72.5625 C-22.97724709 68.25279711 -22.86772416 64.94799987 -22.82421875 60.0234375 C-22.80099981 58.6158708 -22.77688166 57.20831871 -22.75195312 55.80078125 C-22.71703433 53.59576938 -22.68759992 51.3912882 -22.67407227 49.18603516 C-22.59894992 38.93010123 -21.49810179 31.45292338 -15.875 22.6875 C-11.5174958 18.61418086 -6.03809187 16 0 16 C0 10.72 0 5.44 0 0 Z " fill="#2F77B2" transform="translate(283,142)"/>
<path d="M0 0 C1.60546875 1.6171875 1.60546875 1.6171875 3.1875 3.875 C5.77947263 7.41403955 8.46826044 10.70717214 11.4375 13.9375 C15.22923996 18.08451372 18.73747542 22.39020781 22.2109375 26.8046875 C24.32451723 29.39820673 26.60191794 31.67244977 29 34 C31.16854042 37.25281063 31.57763542 38.22535268 31 42 C29.13671875 44.203125 29.13671875 44.203125 26.6875 46.25 C25.88699219 46.93578125 25.08648437 47.6215625 24.26171875 48.328125 C22 50 22 50 19 51 C18.01 50.34 17.02 49.68 16 49 C16 48.34 16 47.68 16 47 C15.4225 46.79375 14.845 46.5875 14.25 46.375 C12 45 12 45 8 39 C8 57.48 8 75.96 8 95 C4 97 4 97 -12 96 C-12.33 77.19 -12.66 58.38 -13 39 C-14.98 41.64 -16.96 44.28 -19 47 C-19.66 47 -20.32 47 -21 47 C-21.66 48.32 -22.32 49.64 -23 51 C-28.14656603 49.5525283 -32.6625306 46.13249933 -36 42 C-36.37109375 39.421875 -36.37109375 39.421875 -36 37 C-33.75 34.5625 -33.75 34.5625 -31 32 C-30.278125 30.906875 -29.55625 29.81375 -28.8125 28.6875 C-28.214375 27.800625 -27.61625 26.91375 -27 26 C-26.34 26 -25.68 26 -25 26 C-24.72833008 25.41065674 -24.45666016 24.82131348 -24.17675781 24.21411133 C-23.02095168 22.03942132 -21.79528662 20.41677512 -20.171875 18.57421875 C-19.61886719 17.94193359 -19.06585938 17.30964844 -18.49609375 16.65820312 C-17.91988281 16.00787109 -17.34367187 15.35753906 -16.75 14.6875 C-15.61961209 13.39989722 -14.48940296 12.11213745 -13.359375 10.82421875 C-12.52116211 9.8813501 -12.52116211 9.8813501 -11.66601562 8.91943359 C-10.54179077 7.62420267 -9.44692179 6.30298135 -8.38085938 4.95947266 C-7.61225586 3.99920166 -7.61225586 3.99920166 -6.828125 3.01953125 C-6.37856445 2.43921143 -5.92900391 1.8588916 -5.46582031 1.26098633 C-4 0 -4 0 0 0 Z " fill="#83CD55" transform="translate(341,201)"/>
<path d="M0 0 C3 2 3 2 6 4 C7.65 4.99 9.3 5.98 11 7 C10.67 14.26 10.34 21.52 10 29 C12.0745356 30.2236068 12.0745356 30.2236068 15 30 C15 26.04 15 22.08 15 18 C15.66 18 16.32 18 17 18 C17.02578125 18.67546875 17.0515625 19.3509375 17.078125 20.046875 C17.43748607 25.69864463 17.79212372 28.06359961 22 32 C22.43983005 36.83813051 22.19790735 41.60418529 20 46 C20.41826722 48.44525452 20.89240875 50.83304218 21.4375 53.25 C22.48006182 57.88461978 23.18538738 62.22442118 23 67 C19.63849548 68.12050151 17.03713274 68.13296652 13.5 68.125 C12.3553125 68.12757813 11.210625 68.13015625 10.03125 68.1328125 C7 68 7 68 4 67 C5.61702128 47.76595745 5.61702128 47.76595745 8 43 C7.34 43 6.68 43 6 43 C4.81176203 39.43528609 4.73725148 36.7441664 5 33 C5.48960205 32.36932617 5.9792041 31.73865234 6.48364258 31.08886719 C8.32031036 28.55875455 8.41730652 27.11234624 8.51171875 24.015625 C8.54716797 23.08105469 8.58261719 22.14648438 8.61914062 21.18359375 C8.64169922 20.21550781 8.66425781 19.24742187 8.6875 18.25 C8.72166016 17.26644531 8.75582031 16.28289062 8.79101562 15.26953125 C8.87335273 12.84646801 8.94254838 10.42376002 9 8 C7.82497925 7.77582397 7.82497925 7.77582397 6.6262207 7.54711914 C3.13693333 6.82019779 0.24452478 5.46321706 -3 4 C-3 3.01 -3 2.02 -3 1 C-2.01 0.67 -1.02 0.34 0 0 Z " fill="#3277AF" transform="translate(232,112)"/>
<path d="M0 0 C3.3 0.66 6.6 1.32 10 2 C10.33 5.96 10.66 9.92 11 14 C8 15 8 15 5 15.375 C1.75349721 16.05135475 0.81061362 16.28407957 -1 19 C-1.74386068 21.30988315 -2.42190703 23.64315944 -3 26 C-4.66611905 26.042721 -6.33382885 26.04063832 -8 26 C-9 25 -9 25 -10.8125 22.5 C-13.02609319 19.97017921 -13.75998728 19.32400127 -17 19 C-17.66 19 -18.32 19 -19 19 C-19.33 17.68 -19.66 16.36 -20 15 C-13.85714286 9.42857143 -13.85714286 9.42857143 -9 9 C-8.67 7.68 -8.34 6.36 -8 5 C-6.02 5 -4.04 5 -2 5 C-1.34 3.35 -0.68 1.7 0 0 Z " fill="#144F85" transform="translate(420,220)"/>
<path d="M0 0 C1.65 0.33 3.3 0.66 5 1 C5.68359375 3.97851562 5.68359375 3.97851562 6.3671875 6.95703125 C6.98007723 9.27742974 6.98007723 9.27742974 9 12 C9.4140625 14.48046875 9.4140625 14.48046875 9.625 17.1875 C9.69976562 18.08855469 9.77453125 18.98960937 9.8515625 19.91796875 C9.92503906 20.94857422 9.92503906 20.94857422 10 22 C9.45601562 21.835 8.91203125 21.67 8.3515625 21.5 C5.62353891 20.91995512 3.16131387 20.93991776 0.375 21 C-4.77892031 21.11053985 -4.77892031 21.11053985 -7 20 C-6.01 14.39 -5.02 8.78 -4 3 C-2.68 2.67 -1.36 2.34 0 2 C0 1.34 0 0.68 0 0 Z " fill="#2C74AF" transform="translate(245,157)"/>
<path d="M0 0 C10.55808656 3.07517084 10.55808656 3.07517084 15 5 C14.83984375 6.85546875 14.83984375 6.85546875 14 9 C11.56640625 10.30078125 11.56640625 10.30078125 8.5625 11.3125 C7.07943359 11.83263672 7.07943359 11.83263672 5.56640625 12.36328125 C3 13 3 13 1 12 C1.33 11.01 1.66 10.02 2 9 C2.66 9 3.32 9 4 9 C4 8.34 4 7.68 4 7 C1.03 6.67 -1.94 6.34 -5 6 C-4.67 5.01 -4.34 4.02 -4 3 C-3.34 3 -2.68 3 -2 3 C-1.67 2.34 -1.34 1.68 -1 1 C-0.67 0.67 -0.34 0.34 0 0 Z " fill="#4884B4" transform="translate(433,108)"/>
<path d="M0 0 C1.20217503 2.40435006 1.03897118 3.68381369 0.87890625 6.3515625 C0.83056641 7.20234375 0.78222656 8.053125 0.73242188 8.9296875 C0.67634766 9.81914062 0.62027344 10.70859375 0.5625 11.625 C0.51029297 12.5221875 0.45808594 13.419375 0.40429688 14.34375 C0.2744565 16.56284012 0.13948661 18.78149871 0 21 C-0.33 21 -0.66 21 -1 21 C-1.33 15.72 -1.66 10.44 -2 5 C-3.423125 6.98 -3.423125 6.98 -4.875 9 C-6.4921875 11.25 -6.4921875 11.25 -8 13 C-8.66 13 -9.32 13 -10 13 C-10.66 14.32 -11.32 15.64 -12 17 C-13.32 16.34 -14.64 15.68 -16 15 C-15.34 14.01 -14.68 13.02 -14 12 C-11.375 11.8125 -11.375 11.8125 -9 12 C-9 10.68 -9 9.36 -9 8 C-8.34 7.67 -7.68 7.34 -7 7 C-6.731875 6.195625 -6.46375 5.39125 -6.1875 4.5625 C-5 2 -5 2 -2.375 0.6875 C-1.59125 0.460625 -0.8075 0.23375 0 0 Z " fill="#A8D587" transform="translate(330,235)"/>
<path d="M0 0 C0.66 0.33 1.32 0.66 2 1 C2 11.89 2 22.78 2 34 C1.01 34 0.02 34 -1 34 C-1.024727 29.64005933 -1.04287281 25.28015586 -1.05493164 20.92016602 C-1.05995903 19.43708587 -1.06678185 17.95401067 -1.07543945 16.47094727 C-1.08757482 14.33869199 -1.09324425 12.20650227 -1.09765625 10.07421875 C-1.10289307 8.79119873 -1.10812988 7.50817871 -1.11352539 6.1862793 C-1 3 -1 3 0 0 Z " fill="#214E77" transform="translate(413,248)"/>
<path d="M0 0 C3 2 3 2 6 4 C7.65 4.99 9.3 5.98 11 7 C10.67 14.59 10.34 22.18 10 30 C9.34 29.67 8.68 29.34 8 29 C8.33 22.07 8.66 15.14 9 8 C7.35 7.67 5.7 7.34 4 7 C1.60771311 6.10694126 -0.66943362 5.05103974 -3 4 C-3 3.01 -3 2.02 -3 1 C-2.01 0.67 -1.02 0.34 0 0 Z " fill="#6B94BB" transform="translate(232,112)"/>
<path d="M0 0 C0.99 0.33 1.98 0.66 3 1 C4.48759415 5.20026584 4.48759415 5.20026584 4 8 C0.69553361 11.98790614 -3.05761476 15.35253825 -8 17 C-8.99 16.01 -9.98 15.02 -11 14 C-9.35 14 -7.7 14 -6 14 C-5.34 12.68 -4.68 11.36 -4 10 C-3.01 10 -2.02 10 -1 10 C-1.020625 9.278125 -1.04125 8.55625 -1.0625 7.8125 C-1.00179441 5.08074862 -0.60741465 2.65743909 0 0 Z " fill="#90C66D" transform="translate(368,235)"/>
<path d="M0 0 C3.60409919 -0.05800828 7.20807851 -0.09359869 10.8125 -0.125 C12.34874023 -0.15013672 12.34874023 -0.15013672 13.91601562 -0.17578125 C14.89892578 -0.18222656 15.88183594 -0.18867188 16.89453125 -0.1953125 C17.80050049 -0.20578613 18.70646973 -0.21625977 19.63989258 -0.22705078 C22 0 22 0 25 2 C26.9896995 2.39013716 28.99019869 2.73202649 31 3 C31 3.66 31 4.32 31 5 C31.66 5 32.32 5 33 5 C33 5.66 33 6.32 33 7 C31.98292969 6.70996094 31.98292969 6.70996094 30.9453125 6.4140625 C20.60789195 3.52187559 10.72328815 1.70014596 0 1 C0 0.67 0 0.34 0 0 Z " fill="#3B77A4" transform="translate(286,173)"/>
<path d="M0 0 C0 0.66 0 1.32 0 2 C-0.99 2.495 -0.99 2.495 -2 3 C-2 3.66 -2 4.32 -2 5 C-3.98 5.33 -5.96 5.66 -8 6 C-8 6.66 -8 7.32 -8 8 C-9.98 8.33 -11.96 8.66 -14 9 C-14 8.01 -14 7.02 -14 6 C-14.66 5.67 -15.32 5.34 -16 5 C-14.08717875 4.15787744 -12.16957527 3.32661136 -10.25 2.5 C-9.18265625 2.0359375 -8.1153125 1.571875 -7.015625 1.09375 C-4 0 -4 0 0 0 Z " fill="#4C85B3" transform="translate(253,105)"/>
<path d="M0 0 C0.33 1.32 0.66 2.64 1 4 C-3.18843928 5.97103025 -4.99852013 6 -10 6 C-9.67 10.29 -9.34 14.58 -9 19 C-9.99 19 -10.98 19 -12 19 C-12 14.38 -12 9.76 -12 5 C-9.75390625 4.57682292 -7.5078125 4.15364583 -5.26171875 3.73046875 C-2.76554413 2.92427764 -1.67577894 1.97947998 0 0 Z " fill="#679EB5" transform="translate(258,214)"/>
<path d="M0 0 C1.75 2 1.75 2 3 4 C2.67 4.66 2.34 5.32 2 6 C1.566875 5.505 1.13375 5.01 0.6875 4.5 C-0.99740483 2.66781808 -0.99740483 2.66781808 -4 3 C-4.433125 3.969375 -4.86625 4.93875 -5.3125 5.9375 C-7 9 -7 9 -10 10 C-10.28875 10.639375 -10.5775 11.27875 -10.875 11.9375 C-12.39098648 14.71680854 -14.05867273 15.07115981 -17 16 C-13.90823259 11.74174159 -10.72851295 7.55608478 -7.375 3.5 C-6.82585937 2.8296875 -6.27671875 2.159375 -5.7109375 1.46875 C-4 0 -4 0 0 0 Z " fill="#9ECB82" transform="translate(341,201)"/>
<path d="M0 0 C0.66 0 1.32 0 2 0 C2 5.28 2 10.56 2 16 C-1.96 16 -5.92 16 -10 16 C-10 15.34 -10 14.68 -10 14 C-6.7 14 -3.4 14 0 14 C0 9.38 0 4.76 0 0 Z " fill="#6092AF" transform="translate(295,281)"/>
<path d="M0 0 C0.680625 0.639375 1.36125 1.27875 2.0625 1.9375 C5.47133349 4.33093628 7.90738952 4.60647976 12 5 C13 6 13 6 13.09765625 8.94140625 C13.08605469 10.13636719 13.07445312 11.33132812 13.0625 12.5625 C13.05347656 13.76003906 13.04445313 14.95757812 13.03515625 16.19140625 C13.02355469 17.11824219 13.01195312 18.04507813 13 19 C12.67 19 12.34 19 12 19 C12 15.7 12 12.4 12 9 C9.69 9 7.38 9 5 9 C4.67 7.68 4.34 6.36 4 5 C2.68 4.67 1.36 4.34 0 4 C0 2.68 0 1.36 0 0 Z " fill="#6080A4" transform="translate(418,213)"/>
<path d="M0 0 C8.71827218 2.85325271 17.35518532 5.93312545 26 9 C26 9.33 26 9.66 26 10 C20.42836953 10.42858696 16.13849953 8.87770482 11 7 C9.824375 6.608125 8.64875 6.21625 7.4375 5.8125 C6.633125 5.544375 5.82875 5.27625 5 5 C5 4.34 5 3.68 5 3 C4.360625 2.87625 3.72125 2.7525 3.0625 2.625 C2.381875 2.41875 1.70125 2.2125 1 2 C0.67 1.34 0.34 0.68 0 0 Z " fill="#618DB1" transform="translate(407,98)"/>
<path d="M0 0 C0.66 1.32 1.32 2.64 2 4 C1.34 4.66 0.68 5.32 0 6 C-1.32 4.68 -2.64 3.36 -4 2 C-4 9.59 -4 17.18 -4 25 C-4.33 25 -4.66 25 -5 25 C-5.06058594 23.98679687 -5.12117188 22.97359375 -5.18359375 21.9296875 C-5.26806704 20.57811486 -5.35271157 19.22655291 -5.4375 17.875 C-5.47681641 17.20984375 -5.51613281 16.5446875 -5.55664062 15.859375 C-5.75537637 12.74075258 -6.04738035 9.76281792 -6.66015625 6.6953125 C-7 4 -7 4 -5 1 C-2.375 0.3125 -2.375 0.3125 0 0 Z " fill="#87CC61" transform="translate(351,237)"/>
<path d="M0 0 C6.625 -0.125 6.625 -0.125 10 1 C9.67 2.32 9.34 3.64 9 5 C4.545 5.495 4.545 5.495 0 6 C0 4.02 0 2.04 0 0 Z " fill="#346FA7" transform="translate(438,112)"/>
<path d="M0 0 C2 4 2 4 1 8 C5.62 8 10.24 8 15 8 C15 8.99 15 9.98 15 11 C12.89590361 11.02701408 10.79170822 11.04640223 8.6875 11.0625 C7.51574219 11.07410156 6.34398437 11.08570313 5.13671875 11.09765625 C2 11 2 11 -1 10 C-0.67 6.7 -0.34 3.4 0 0 Z " fill="#769DBC" transform="translate(237,169)"/>
<path d="M0 0 C-1.32 0.33 -2.64 0.66 -4 1 C-4 1.66 -4 2.32 -4 3 C-8.37149656 6.66641647 -12.60258708 6.31749488 -18 6 C-18.33 6.66 -18.66 7.32 -19 8 C-19.66 7.34 -20.32 6.68 -21 6 C-17.87959957 4.80015399 -14.75304469 3.61725823 -11.625 2.4375 C-10.73554688 2.09525391 -9.84609375 1.75300781 -8.9296875 1.40039062 C-7.65351563 0.92182617 -7.65351563 0.92182617 -6.3515625 0.43359375 C-5.17327881 -0.01415405 -5.17327881 -0.01415405 -3.97119141 -0.47094727 C-2 -1 -2 -1 0 0 Z " fill="#628FB7" transform="translate(319,81)"/>
<path d="M0 0 C0.33 0.66 0.66 1.32 1 2 C1.99 2 2.98 2 4 2 C3.67 4.64 3.34 7.28 3 10 C1.68 9.67 0.36 9.34 -1 9 C-1 8.34 -1 7.68 -1 7 C-1.66 7 -2.32 7 -3 7 C-3.33 7.66 -3.66 8.32 -4 9 C-3.46930939 5.17902761 -2.50298434 2.93828597 0 0 Z " fill="#2877B7" transform="translate(267,165)"/>
<path d="M0 0 C2.19995978 4.39991956 1.22709926 10.33952421 1.24023438 15.23071289 C1.24994768 17.42567733 1.28097409 19.61970822 1.3125 21.81445312 C1.31902948 23.20832777 1.32428017 24.60220911 1.328125 25.99609375 C1.3374707 27.26638428 1.34681641 28.5366748 1.35644531 29.84545898 C1 33 1 33 -0.52050781 34.93774414 C-1.00874023 35.28828857 -1.49697266 35.63883301 -2 36 C-1.88205038 31.03360043 -1.75782482 26.06741349 -1.62768555 21.10131836 C-1.58427561 19.41060701 -1.54260511 17.71985009 -1.50268555 16.02905273 C-1.44512906 13.60386394 -1.38139351 11.17890585 -1.31640625 8.75390625 C-1.29969376 7.99348526 -1.28298126 7.23306427 -1.26576233 6.44960022 C-1.11387171 1.11387171 -1.11387171 1.11387171 0 0 Z " fill="#2E6B97" transform="translate(263,177)"/>
<path d="M0 0 C0.33 0 0.66 0 1 0 C1 5.61 1 11.22 1 17 C0.01 17.33 -0.98 17.66 -2 18 C-1.01 18.66 -0.02 19.32 1 20 C-1.31 20.99 -3.62 21.98 -6 23 C-5.67 21.35 -5.34 19.7 -5 18 C-5.66 17.67 -6.32 17.34 -7 17 C-3.535 16.505 -3.535 16.505 0 16 C0 10.72 0 5.44 0 0 Z " fill="#87B8DC" transform="translate(283,142)"/>
<path d="M0 0 C-4.8043208 2.4021604 -9.73103895 2.61122229 -15 3 C-15 5.31 -15 7.62 -15 10 C-15.33 10 -15.66 10 -16 10 C-16.33 6.7 -16.66 3.4 -17 0 C-14.54203147 -0.19436491 -12.08390706 -0.3807742 -9.625 -0.5625 C-8.92632812 -0.61857422 -8.22765625 -0.67464844 -7.5078125 -0.73242188 C-2.2265625 -1.11328125 -2.2265625 -1.11328125 0 0 Z " fill="#214F71" transform="translate(397,281)"/>
<path d="M0 0 C0.33 0 0.66 0 1 0 C1 10.23 1 20.46 1 31 C1.66 31 2.32 31 3 31 C3 32.65 3 34.3 3 36 C1.51831055 34.96948242 1.51831055 34.96948242 0 33 C-0.26153069 30.41225229 -0.34958438 28.07100347 -0.29296875 25.48828125 C-0.28872391 24.76005661 -0.28447906 24.03183197 -0.28010559 23.28153992 C-0.26332733 20.95814873 -0.22567855 18.6356285 -0.1875 16.3125 C-0.17245197 14.73634066 -0.15876377 13.16016771 -0.14648438 11.58398438 C-0.11342685 7.72232123 -0.06165194 3.86130822 0 0 Z " fill="#2A6799" transform="translate(277,243)"/>
<path d="M0 0 C0.99 0.33 1.98 0.66 3 1 C2.67 10.24 2.34 19.48 2 29 C1.34 28.67 0.68 28.34 0 28 C0.33 20.74 0.66 13.48 1 6 C0.34 6 -0.32 6 -1 6 C-0.67 4.02 -0.34 2.04 0 0 Z " fill="#184870" transform="translate(413,175)"/>
<path d="M0 0 C-5.81475715 3.27591952 -10.24520726 5.7342166 -17 5 C-16.67 4.01 -16.34 3.02 -16 2 C-15.01 1.67 -14.02 1.34 -13 1 C-12.34 1.33 -11.68 1.66 -11 2 C-8.9234705 1.32986734 -6.97383195 0.46154956 -4.97265625 -0.40625 C-3 -1 -3 -1 0 0 Z " fill="#3B74A2" transform="translate(435,120)"/>
<path d="M0 0 C0.66 0.33 1.32 0.66 2 1 C2.33 1.99 2.66 2.98 3 4 C3.66 4.33 4.32 4.66 5 5 C0.375 9 0.375 9 -3 9 C-2.69181644 7.68647977 -2.37832335 6.37420428 -2.0625 5.0625 C-1.88847656 4.33160156 -1.71445312 3.60070312 -1.53515625 2.84765625 C-1 1 -1 1 0 0 Z " fill="#4885B4" transform="translate(269,217)"/>
<path d="M0 0 C0.309375 0.639375 0.61875 1.27875 0.9375 1.9375 C1.8345163 3.93610821 1.8345163 3.93610821 3 5 C5.52596259 5.23653523 8.03107207 5.42173692 10.5625 5.5625 C11.62887695 5.62727539 11.62887695 5.62727539 12.71679688 5.69335938 C14.47761912 5.79971777 16.2387832 5.90038846 18 6 C18 6.66 18 7.32 18 8 C11.8894576 8.11269443 6.04829486 7.89604368 0 7 C0 4.69 0 2.38 0 0 Z " fill="#A2D086" transform="translate(329,290)"/>
<path d="M0 0 C-0.66 1.32 -1.32 2.64 -2 4 C-2.66 4 -3.32 4 -4 4 C-4.33 4.66 -4.66 5.32 -5 6 C-7.97 6 -10.94 6 -14 6 C-11.47732009 4.31821339 -9.18908177 3.09893258 -6.4375 1.875 C-5.65246094 1.52179688 -4.86742187 1.16859375 -4.05859375 0.8046875 C-2 0 -2 0 0 0 Z " fill="#426D92" transform="translate(388,143)"/>
<path d="M0 0 C1.32 0 2.64 0 4 0 C4 5.28 4 10.56 4 16 C4.99 16.33 5.98 16.66 7 17 C5.68 17 4.36 17 3 17 C2.86722656 16.10796875 2.73445313 15.2159375 2.59765625 14.296875 C2.42105469 13.12640625 2.24445313 11.9559375 2.0625 10.75 C1.88847656 9.58984375 1.71445312 8.4296875 1.53515625 7.234375 C1.1272264 4.76893039 0.66098697 2.40575438 0 0 Z " fill="#7EA1B9" transform="translate(390,142)"/>
<path d="M0 0 C1.25425781 0.10183594 2.50851562 0.20367187 3.80078125 0.30859375 C5.22970703 0.43427734 5.22970703 0.43427734 6.6875 0.5625 C6.6875 0.8925 6.6875 1.2225 6.6875 1.5625 C3.95873692 1.89945862 1.22956837 2.23218429 -1.5 2.5625 C-2.65338867 2.70558594 -2.65338867 2.70558594 -3.83007812 2.8515625 C-7.68178811 3.31442894 -11.42420851 3.68717468 -15.3125 3.5625 C-14.3225 3.2325 -13.3325 2.9025 -12.3125 2.5625 C-12.3125 1.9025 -12.3125 1.2425 -12.3125 0.5625 C-8.06698144 -0.53337955 -4.3532161 -0.36615836 0 0 Z " fill="#2F5F81" transform="translate(384.3125,172.4375)"/>
<path d="M0 0 C0.66 0 1.32 0 2 0 C2.2358396 5.77807024 1.86783046 10.51324804 0 16 C-0.33 16 -0.66 16 -1 16 C-1.02725341 14.2709226 -1.04650987 12.54171824 -1.0625 10.8125 C-1.07410156 9.84957031 -1.08570313 8.88664063 -1.09765625 7.89453125 C-1.00486622 5.14423487 -0.62111685 2.67520409 0 0 Z " fill="#4A81AB" transform="translate(239,157)"/>
<path d="M0 0 C-2.80649235 1.8709949 -5.49960473 3.23017952 -8.5625 4.625 C-9.53316406 5.07101563 -10.50382812 5.51703125 -11.50390625 5.9765625 C-14 7 -14 7 -16 7 C-16 6.34 -16 5.68 -16 5 C-14.27473958 4.28385417 -12.54947917 3.56770833 -10.82421875 2.8515625 C-4.30565897 -0.19136262 -4.30565897 -0.19136262 0 0 Z " fill="#628DB2" transform="translate(374,143)"/>
<path d="M0 0 C-0.99 1.485 -0.99 1.485 -2 3 C-4.8203125 3.51171875 -4.8203125 3.51171875 -8.125 3.6875 C-9.76855469 3.78611328 -9.76855469 3.78611328 -11.4453125 3.88671875 C-12.28835938 3.92410156 -13.13140625 3.96148437 -14 4 C-10.07627117 0.07627117 -5.34401044 -0.25447669 0 0 Z " fill="#5081B0" transform="translate(296,90)"/>
<path d="M0 0 C0.33 1.32 0.66 2.64 1 4 C0.01 4.495 0.01 4.495 -1 5 C-1.28875 5.66 -1.5775 6.32 -1.875 7 C-3 9 -3 9 -5.125 9.75 C-6.053125 9.87375 -6.053125 9.87375 -7 10 C-6.01 8.02 -5.02 6.04 -4 4 C-3.34 4 -2.68 4 -2 4 C-1.34 2.68 -0.68 1.36 0 0 Z " fill="#A1D485" transform="translate(318,223)"/>
<path d="M0 0 C7.38461538 0.49230769 7.38461538 0.49230769 10.5 3.0625 C10.995 3.701875 11.49 4.34125 12 5 C9.44345185 5.95582656 8.39658231 6.17802782 5.859375 5.0390625 C5.16328125 4.57242188 4.4671875 4.10578125 3.75 3.625 C3.04359375 3.16351563 2.3371875 2.70203125 1.609375 2.2265625 C1.07828125 1.82179687 0.5471875 1.41703125 0 1 C0 0.67 0 0.34 0 0 Z " fill="#6496BB" transform="translate(327,183)"/>
<path d="M0 0 C1.2065625 0.0309375 1.2065625 0.0309375 2.4375 0.0625 C3.0975 1.7125 3.7575 3.3625 4.4375 5.0625 C1.4375 6.0625 1.4375 6.0625 -0.6875 5.3125 C-2.5625 4.0625 -2.5625 4.0625 -3.5625 1.0625 C-2.5625 0.0625 -2.5625 0.0625 0 0 Z " fill="#3777AC" transform="translate(236.5625,110.9375)"/>
<path d="M0 0 C4.55737263 0.43820891 7.57653445 0.85041169 11 4 C8.83032311 4.95465783 7.43671207 5.14401212 5.17578125 4.3984375 C3.4315257 3.64129615 1.71372869 2.82390802 0 2 C0 1.34 0 0.68 0 0 Z " fill="#5A8CB3" transform="translate(292,138)"/>
<path d="M0 0 C-4.455 3.465 -4.455 3.465 -9 7 C-10.32 6.34 -11.64 5.68 -13 5 C-11 4 -11 4 -8 4 C-7.7525 3.360625 -7.505 2.72125 -7.25 2.0625 C-6 0 -6 0 -4 -0.8125 C-2 -1 -2 -1 0 0 Z " fill="#A5CF89" transform="translate(370,245)"/>
<path d="M0 0 C0.33 0.66 0.66 1.32 1 2 C1.99 2.33 2.98 2.66 4 3 C-1.445 5.475 -1.445 5.475 -7 8 C-6.67 6.68 -6.34 5.36 -6 4 C-2.9375 2.75 -2.9375 2.75 0 2 C0 1.34 0 0.68 0 0 Z " fill="#436C94" transform="translate(353,178)"/>
<path d="M0 0 C0 0.66 0 1.32 0 2 C-4.5833089 5.95112837 -10.23645907 5.70728076 -16 6 C-13.12921701 4.08614468 -10.66588344 3.03567048 -7.4375 1.875 C-6.46683594 1.52179688 -5.49617188 1.16859375 -4.49609375 0.8046875 C-2 0 -2 0 0 0 Z " fill="#3E678B" transform="translate(360,154)"/>
<path d="M0 0 C0.33 0 0.66 0 1 0 C1.35233161 5.37305699 1.35233161 5.37305699 1 8 C-1 10 -1 10 -3 11 C-3.6875 8.6875 -3.6875 8.6875 -4 6 C-2.625 4.375 -2.625 4.375 -1 3 C-0.67 2.01 -0.34 1.02 0 0 Z " fill="#3089BA" transform="translate(277,235)"/>
<path d="M0 0 C6.57142857 5 6.57142857 5 8 10 C3.97881358 7.93506643 1.98665002 6.07786057 0 2 C0 1.34 0 0.68 0 0 Z " fill="#A2CE8B" transform="translate(357,222)"/>
<path d="M0 0 C0.7425 0.185625 1.485 0.37125 2.25 0.5625 C4.94990963 0.99203108 6.44631077 0.85122974 9 0 C8.67 1.32 8.34 2.64 8 4 C5.36 3.67 2.72 3.34 0 3 C0 2.01 0 1.02 0 0 Z " fill="#3778AC" transform="translate(323,179)"/>
<path d="M0 0 C0.5534764 2.07553648 1 3.84365964 1 6 C-2.375 6.125 -2.375 6.125 -6 6 C-6.66 5.34 -7.32 4.68 -8 4 C-7.236875 3.896875 -6.47375 3.79375 -5.6875 3.6875 C-2.82940576 2.95635961 -1.84257115 2.23048087 0 0 Z " fill="#447EAE" transform="translate(284,129)"/>
<path d="M0 0 C3.96 0.33 7.92 0.66 12 1 C11.67 1.66 11.34 2.32 11 3 C7.37 3 3.74 3 0 3 C0 2.01 0 1.02 0 0 Z " fill="#40647D" transform="translate(381,294)"/>
<path d="M0 0 C2.12508244 3.18762365 2.5020163 5.26512223 3 9 C0.95880212 7.38405168 -1.04072937 5.7143618 -3 4 C-3 3.34 -3 2.68 -3 2 C-2.01 1.34 -1.02 0.68 0 0 Z " fill="#4F87B1" transform="translate(269,284)"/>
<path d="M0 0 C0.70125 0.639375 1.4025 1.27875 2.125 1.9375 C5.22841233 4.16386102 7.24620139 4.65080943 11 5 C10.01 5.66 9.02 6.32 8 7 C7.67 7.66 7.34 8.32 7 9 C6.34 9 5.68 9 5 9 C4.67 7.68 4.34 6.36 4 5 C2.68 4.67 1.36 4.34 0 4 C0 2.68 0 1.36 0 0 Z " fill="#6590AC" transform="translate(418,213)"/>
<path d="M0 0 C1.32 0.66 2.64 1.32 4 2 C3.2884375 2.6496875 3.2884375 2.6496875 2.5625 3.3125 C0.76313043 5.02309613 0.76313043 5.02309613 0 8 C-0.99 8 -1.98 8 -3 8 C-1.125 2.25 -1.125 2.25 0 0 Z " fill="#326289" transform="translate(418,234)"/>
<path d="M0 0 C2.475 0.99 2.475 0.99 5 2 C5 2.99 5 3.98 5 5 C3.02 5 1.04 5 -1 5 C-1.33 4.01 -1.66 3.02 -2 2 C-1.34 2 -0.68 2 0 2 C0 1.34 0 0.68 0 0 Z " fill="#8AC95E" transform="translate(362,231)"/>
<path d="M0 0 C0.99 0.33 1.98 0.66 3 1 C2.38125 1.5775 1.7625 2.155 1.125 2.75 C-0.81347053 4.80249821 -1.90014249 6.43366582 -3 9 C-3.66 9 -4.32 9 -5 9 C-5.33 7.68 -5.66 6.36 -6 5 C-1.60546875 0.99609375 -1.60546875 0.99609375 0 0 Z " fill="#17477B" transform="translate(406,230)"/>
<path d="M0 0 C-3.36423277 2.96052484 -6.69159287 3.92289822 -11 5 C-10.25 3.0625 -10.25 3.0625 -9 1 C-6.05528957 -0.21850087 -3.15451555 -0.08762543 0 0 Z " fill="#628EB5" transform="translate(350,152)"/>
<path d="M0 0 C-1.125 1.5625 -1.125 1.5625 -3 3 C-6.1875 2.6875 -6.1875 2.6875 -9 2 C-9 1.34 -9 0.68 -9 0 C-5.93109813 -1.53445094 -3.29905734 -0.54984289 0 0 Z " fill="#266FAA" transform="translate(361,146)"/>
<path d="M0 0 C0.54140625 0.48082031 1.0828125 0.96164062 1.640625 1.45703125 C4.47897288 3.31323558 6.38792626 3.48737656 9.75 3.6875 C11.22726562 3.78611328 11.22726562 3.78611328 12.734375 3.88671875 C13.85585938 3.94279297 13.85585938 3.94279297 15 4 C15 4.33 15 4.66 15 5 C13.06403108 5.22211116 11.12610672 5.42722992 9.1875 5.625 C7.56908203 5.79902344 7.56908203 5.79902344 5.91796875 5.9765625 C3 6 3 6 0 4 C0 2.68 0 1.36 0 0 Z " fill="#A7C3DF" transform="translate(280,276)"/>
<path d="M0 0 C0 1.32 0 2.64 0 4 C-0.66 4 -1.32 4 -2 4 C-2 4.66 -2 5.32 -2 6 C-3.98 6 -5.96 6 -8 6 C-7.34 5.34 -6.68 4.68 -6 4 C-5.01 4 -4.02 4 -3 4 C-3 3.34 -3 2.68 -3 2 C-3.66 1.67 -4.32 1.34 -5 1 C-2 0 -2 0 0 0 Z " fill="#306FA0" transform="translate(380,137)"/>
<path d="M0 0 C2.375 -0.1875 2.375 -0.1875 5 0 C5.66 0.99 6.32 1.98 7 3 C4.69 3.33 2.38 3.66 0 4 C0 2.68 0 1.36 0 0 Z " fill="#2A6DA5" transform="translate(402,98)"/>
<path d="M0 0 C0.33 0 0.66 0 1 0 C1 2.64 1 5.28 1 8 C-0.98 8 -2.96 8 -5 8 C-4.67 7.34 -4.34 6.68 -4 6 C-3.01 6 -2.02 6 -1 6 C-1.020625 5.195625 -1.04125 4.39125 -1.0625 3.5625 C-1 1 -1 1 0 0 Z " fill="#2378BA" transform="translate(293,286)"/>
<path d="M0 0 C0.66 0.33 1.32 0.66 2 1 C2 1.66 2 2.32 2 3 C-1.56045177 4.18681726 -4.43808337 4.09689832 -8.1875 4.0625 C-9.45980469 4.05347656 -10.73210937 4.04445313 -12.04296875 4.03515625 C-13.50669922 4.01775391 -13.50669922 4.01775391 -15 4 C-15 3.67 -15 3.34 -15 3 C-13.62714844 2.92652344 -13.62714844 2.92652344 -12.2265625 2.8515625 C-11.03804688 2.77679688 -9.84953125 2.70203125 -8.625 2.625 C-7.44164062 2.55539062 -6.25828125 2.48578125 -5.0390625 2.4140625 C-1.89437681 2.29782654 -1.89437681 2.29782654 0 0 Z " fill="#B8C8D9" transform="translate(396,277)"/>
<path d="M0 0 C-0.99 1.485 -0.99 1.485 -2 3 C-5.625 3.1875 -5.625 3.1875 -9 3 C-9 2.01 -9 1.02 -9 0 C-2.25 -1.125 -2.25 -1.125 0 0 Z " fill="#4F82A7" transform="translate(344,161)"/>
<path d="M0 0 C1.43931117 0.45261358 2.87638999 0.91232979 4.3125 1.375 C5.11300781 1.63023438 5.91351563 1.88546875 6.73828125 2.1484375 C9 3 9 3 12 5 C9.69 5 7.38 5 5 5 C5 4.34 5 3.68 5 3 C4.360625 2.87625 3.72125 2.7525 3.0625 2.625 C2.381875 2.41875 1.70125 2.2125 1 2 C0.67 1.34 0.34 0.68 0 0 Z " fill="#6B9BBA" transform="translate(407,98)"/>
<path d="M0 0 C3.9492568 0.55105909 7.34920174 1.38935371 11 3 C7.25 5 7.25 5 5 5 C5 4.34 5 3.68 5 3 C3.35 2.67 1.7 2.34 0 2 C0 1.34 0 0.68 0 0 Z " fill="#5E8BB3" transform="translate(395,94)"/>
<path d="M0 0 C3.4375 0.8125 3.4375 0.8125 7 2 C7.33 2.99 7.66 3.98 8 5 C7.34 5 6.68 5 6 5 C5.67 6.32 5.34 7.64 5 9 C4.731875 8.2575 4.46375 7.515 4.1875 6.75 C3.05770579 4.13363446 1.79106798 2.19812889 0 0 Z " fill="#5E8EB4" transform="translate(255,235)"/>
<path d="M0 0 C2.76276177 0.52268466 5.3260876 1.10869587 8 2 C8.33 2.99 8.66 3.98 9 5 C6.03 4.01 3.06 3.02 0 2 C0 1.34 0 0.68 0 0 Z " fill="#588EB5" transform="translate(327,151)"/>
<path d="M0 0 C4.05606165 0.46800711 7.46588679 0.87953208 11 3 C11 3.66 11 4.32 11 5 C9.53932801 4.54917531 8.08151968 4.08906463 6.625 3.625 C5.81289063 3.36976563 5.00078125 3.11453125 4.1640625 2.8515625 C2 2 2 2 0 0 Z " fill="#608CB6" transform="translate(306,144)"/>
<path d="M0 0 C-3.09902323 3.09902323 -5.39147385 2.9898579 -9.75 3.0625 C-10.8225 3.041875 -11.895 3.02125 -13 3 C-8.24109471 0.62054735 -5.45161235 -0.10095578 0 0 Z " fill="#6088AF" transform="translate(342,73)"/>
<path d="M0 0 C1.65 0 3.3 0 5 0 C5 0.99 5 1.98 5 3 C3.02 3.33 1.04 3.66 -1 4 C-1.33 3.34 -1.66 2.68 -2 2 C-1.34 2 -0.68 2 0 2 C0 1.34 0 0.68 0 0 Z " fill="#264F74" transform="translate(400,291)"/>
<path d="M0 0 C0.99 0.33 1.98 0.66 3 1 C3.33 3.64 3.66 6.28 4 9 C3.34 9 2.68 9 2 9 C0.14223235 5.86501708 -0.20140476 3.62528568 0 0 Z " fill="#77A6C4" transform="translate(262,277)"/>
<path d="M0 0 C0.33 0.99 0.66 1.98 1 3 C0.34 3 -0.32 3 -1 3 C-1 4.32 -1 5.64 -1 7 C-2.32 7.33 -3.64 7.66 -5 8 C-2.25 1.125 -2.25 1.125 0 0 Z " fill="#286AA1" transform="translate(275,214)"/>
<path d="M0 0 C1.1725131 0.95117134 2.33787015 1.91117009 3.5 2.875 C4.47453125 3.67550781 4.47453125 3.67550781 5.46875 4.4921875 C5.9740625 4.98976562 6.479375 5.48734375 7 6 C7 6.66 7 7.32 7 8 C6.01 8 5.02 8 4 8 C3.67 7.01 3.34 6.02 3 5 C2.01 4.67 1.02 4.34 0 4 C0 2.68 0 1.36 0 0 Z " fill="#9BCB75" transform="translate(344,207)"/>
<path d="M0 0 C2.97 0 5.94 0 9 0 C9 0.66 9 1.32 9 2 C9.66 2 10.32 2 11 2 C11 2.66 11 3.32 11 4 C7.37 3.01 3.74 2.02 0 1 C0 0.67 0 0.34 0 0 Z " fill="#719EBE" transform="translate(308,176)"/>
<path d="M0 0 C-0.33 1.32 -0.66 2.64 -1 4 C-5.75 5.125 -5.75 5.125 -8 4 C-2.25 0 -2.25 0 0 0 Z " fill="#6B9DC2" transform="translate(276,160)"/>
<path d="M0 0 C1.98 0 3.96 0 6 0 C5.195625 0.61875 4.39125 1.2375 3.5625 1.875 C0.96125481 3.74164041 0.96125481 3.74164041 0 6 C-0.66 6 -1.32 6 -2 6 C-1.49396008 3.83125748 -1.00016187 2.00032373 0 0 Z " fill="#5889AB" transform="translate(280,174)"/>
<path d="M0 0 C0.625 1.8125 0.625 1.8125 1 4 C0.01 5.485 0.01 5.485 -1 7 C-1.66 7 -2.32 7 -3 7 C-3.33 7.66 -3.66 8.32 -4 9 C-3.46930939 5.17902761 -2.50298434 2.93828597 0 0 Z " fill="#70A3C4" transform="translate(267,165)"/>
<path d="M0 0 C4.455 0.99 4.455 0.99 9 2 C8.34 2.66 7.68 3.32 7 4 C4.5 3.8125 4.5 3.8125 2 3 C1.34 2.01 0.68 1.02 0 0 Z " fill="#4F84AA" transform="translate(303,149)"/>
<path d="M0 0 C0.66 0 1.32 0 2 0 C1.21302675 3.41021743 0.12880057 6.68885166 -1 10 C-1.33 10 -1.66 10 -2 10 C-2.25 3.375 -2.25 3.375 0 0 Z " fill="#3E7199" transform="translate(239,142)"/>
<path d="M0 0 C3.3125 -0.25 3.3125 -0.25 7 0 C7.99 1.32 8.98 2.64 10 4 C6.7 3.01 3.4 2.02 0 1 C0 0.67 0 0.34 0 0 Z " fill="#6D9FC0" transform="translate(252,124)"/>
<path d="M0 0 C3.55780196 0.60990891 6.6828589 1.5783681 10 3 C9.01 3.66 8.02 4.32 7 5 C7 4.34 7 3.68 7 3 C5.02 3 3.04 3 1 3 C0.67 2.01 0.34 1.02 0 0 Z " fill="#6D91B4" transform="translate(353,78)"/>
<path d="M0 0 C1.98 1.65 3.96 3.3 6 5 C5.01 6.485 5.01 6.485 4 8 C0 2.25 0 2.25 0 0 Z " fill="#AFD588" transform="translate(351,215)"/>
<path d="M0 0 C0.33 1.32 0.66 2.64 1 4 C-2.21451269 5.60725635 -5.43612536 5.05748185 -9 5 C-9 4.67 -9 4.34 -9 4 C-7.88625 3.71125 -6.7725 3.4225 -5.625 3.125 C-1.99708908 2.30758671 -1.99708908 2.30758671 0 0 Z " fill="#79A2BE" transform="translate(258,214)"/>
<path d="M0 0 C1 2 1 2 0.375 4 C-1.39265071 6.57112831 -3.07589059 7.07659703 -6 8 C-4.02 5.36 -2.04 2.72 0 0 Z " fill="#ACDA8E" transform="translate(330,209)"/>
<path d="M0 0 C0.33 0.66 0.66 1.32 1 2 C1.66 2.33 2.32 2.66 3 3 C0.47524538 4.26237731 -1.31200466 4.09856404 -4.125 4.0625 C-5.03507812 4.05347656 -5.94515625 4.04445312 -6.8828125 4.03515625 C-7.58148438 4.02355469 -8.28015625 4.01195312 -9 4 C-9 3.67 -9 3.34 -9 3 C-7.88625 2.87625 -6.7725 2.7525 -5.625 2.625 C-1.96896323 2.3534187 -1.96896323 2.3534187 0 0 Z " fill="#10497C" transform="translate(390,169)"/>
<path d="M0 0 C4.875 4.625 4.875 4.625 6 8 C5.01 8.495 5.01 8.495 4 9 C4 8.01 4 7.02 4 6 C3.34 6 2.68 6 2 6 C2 5.34 2 4.68 2 4 C1.34 4 0.68 4 0 4 C0 2.68 0 1.36 0 0 Z " fill="#517C98" transform="translate(408,164)"/>
<path d="M0 0 C2.97 0.495 2.97 0.495 6 1 C5.67 1.66 5.34 2.32 5 3 C2.67843403 3.40729228 0.3431213 3.74438677 -2 4 C-1.34 2.68 -0.68 1.36 0 0 Z " fill="#4075A0" transform="translate(352,148)"/>
<path d="M0 0 C0.66 0.33 1.32 0.66 2 1 C2 2.65 2 4.3 2 6 C-1 5 -1 5 -3 2 C-2.01 1.34 -1.02 0.68 0 0 Z " fill="#2A6FA7" transform="translate(303,137)"/>
<path d="M0 0 C2.97 0.99 5.94 1.98 9 3 C8.01 3.66 7.02 4.32 6 5 C2.3125 3.625 2.3125 3.625 -1 2 C-0.67 1.34 -0.34 0.68 0 0 Z " fill="#6F99B7" transform="translate(386,90)"/>
<path d="M0 0 C2.31 0.33 4.62 0.66 7 1 C7 1.66 7 2.32 7 3 C5.02 3.33 3.04 3.66 1 4 C0.67 2.68 0.34 1.36 0 0 Z " fill="#2C6FA4" transform="translate(328,160)"/>
<path d="M0 0 C1.65 0 3.3 0 5 0 C5.33 0.66 5.66 1.32 6 2 C3.69 2.66 1.38 3.32 -1 4 C-0.67 2.68 -0.34 1.36 0 0 Z " fill="#6A96B9" transform="translate(395,132)"/>
<path d="M0 0 C3.14624993 -0.26218749 4.61837017 -0.24754367 7.3125 1.5 C8.1478125 2.2425 8.1478125 2.2425 9 3 C6 4 6 4 2.8125 2.5625 C1.884375 2.046875 0.95625 1.53125 0 1 C0 0.67 0 0.34 0 0 Z " fill="#6894B5" transform="translate(344,75)"/>
</svg>
